# xmcd
#
# Track frame offsets:
#	150
#	16911
#	29131
#	44666
#	63935
#	77344
#	90551
#	107336
#	125079
#	140424
#	155669
#	170042
#	182909
#	196120
#	208334
#	223638
#	237394
#	256267
#	271720
#
# Disc length: 3802 seconds
#
# Revision: 0
# Processed by: cddbd v1.5.2PL0 Copyright (c) Steve Scherf et al.
# Submitted via: audiograbber 1.83.01
#
DISCID=110ed813
DTITLE=Various Artist - Promo Only Country Radio December 2016
DYEAR=2016
DGENRE=Country
TTITLE0=Brad Paisley - Today
TTITLE1=Aubrie Sellers - Sit Here And Cry
TTITLE2=Darius Rucker - If I Told You
TTITLE3=Farewell Angelina - If It Ain't With You
TTITLE4=Thomas Rhett - Star Of The Show
TTITLE5=Blackberry Smoke - Let It Burn
TTITLE6=Hunter Hayes - Yesterday's Song
TTITLE7=Artists Of Then, Now and Forever - Forever Country
TTITLE8=Jake Owen - If He Ain't Gonna Love You (Single Edit)
TTITLE9=Ryan Follese - Put A Label On It
TTITLE10=Kelsea Ballerini - Yeah Boy
TTITLE11=Mike Watkins - Beer Drinking Song
TTITLE12=Love And Theft - Candyland
TTITLE13=Justin Moore - Somebody Else Will
TTITLE14=Jeff Dane - Hillbilly Fire
TTITLE15=John Prine and Lee Ann Womack - Fifteen Years Ago
TTITLE16=David McArthur - 101 Reasons
TTITLE17=Tucker Beathard - Momma And Jesus
TTITLE18=Waylon Jennings - Kentucky Woman
EXTD=
EXTT0=
EXTT1=
EXTT2=
EXTT3=
EXTT4=
EXTT5=
EXTT6=
EXTT7=
EXTT8=
EXTT9=
EXTT10=
EXTT11=
EXTT12=
EXTT13=
EXTT14=
EXTT15=
EXTT16=
EXTT17=
EXTT18=
PLAYORDER=
